<svg width="931" height="212" viewBox="0 0 931 212" fill="none" xmlns="http://www.w3.org/2000/svg">
<path d="M42 211H0V69H42V211Z" fill="#00AD7D"/>
<path d="M47 1H1L132.5 210.5H186.5V1H142V147L47 1Z" fill="white"/>
<path d="M369.85 151.524C365.91 172.594 356.51 188.524 338.83 198.934C319.79 210.144 298.84 211.874 277.49 210.374C268.59 209.754 259.59 208.274 251.02 205.824C229.45 199.664 214.28 185.744 206.64 164.674C197.83 140.394 196.6 115.314 204.16 90.6145C213.31 60.7145 233.46 43.9945 268.17 39.3245C277.85 38.0245 287.83 37.6345 297.56 38.3645C340.9 41.6145 368.3 65.2645 371.93 109.934C372.52 117.224 372.77 124.554 372.95 131.874C373.12 138.854 372.94 138.924 366.08 138.924C327.77 138.924 289.45 138.924 251.14 138.924C249.81 138.924 248.47 138.974 247.14 138.924C243.12 138.744 242.31 140.574 243.31 144.244C246.85 157.084 258 166.814 272.99 167.944C283.36 168.724 293.9 167.954 304.3 167.114C311.68 166.514 317.54 162.494 322.46 156.744C324.53 154.324 328.1 151.904 331.08 151.774C343.67 151.224 356.3 151.544 369.83 151.544L369.85 151.524ZM329.68 101.784C326.18 90.9545 318.19 82.8845 307.65 80.0745C293.9 76.4145 279.9 76.8545 266.13 79.5345C255.16 81.6745 245.19 92.4245 244.2 101.774H329.68V101.784Z" fill="white"/>
<path d="M643.577 119.916C643.117 138.066 641.087 153.366 634.407 167.656C622.147 193.866 600.117 206.026 572.637 210.016C556.947 212.296 541.287 211.206 526.107 206.916C500.967 199.806 483.787 183.856 475.737 158.706C468.417 135.856 467.867 112.776 475.447 89.9864C483.767 64.9764 500.837 48.7664 526.627 42.0264C546.887 36.7364 567.137 36.5564 587.307 42.0964C618.997 50.8064 636.427 72.2964 641.867 104.126C642.897 110.176 643.207 116.356 643.577 119.926V119.916ZM556.997 79.3864C556.997 79.2564 556.997 79.1264 556.997 79.0064C553.327 79.0064 549.667 79.0764 545.997 78.9964C532.017 78.6964 522.067 85.1364 515.907 97.3964C506.867 115.376 507.617 133.446 516.727 151.106C522.587 162.476 532.517 167.916 545.177 168.236C553.337 168.446 561.507 168.466 569.657 168.236C582.807 167.856 592.617 161.706 598.347 149.886C605.237 135.666 606.307 120.656 601.737 105.626C597.677 92.2564 589.467 82.1564 574.937 79.5664C569.137 78.5264 562.987 79.3964 556.997 79.3964V79.3864Z" fill="white"/>
<path d="M387.79 211.004C387.79 208.474 387.79 206.674 387.79 204.864C387.79 152.544 387.85 100.224 387.69 47.9045C387.68 43.2245 388.73 41.4945 393.69 41.6945C403.34 42.0845 413.01 41.8245 422.68 41.8245C427.073 41.8245 429.41 44.0945 429.69 48.6345C429.75 49.6145 430.02 50.5845 430.38 52.6145C443.08 43.0645 456.9 38.6845 472.93 40.3445C472.93 53.2945 473.03 65.9045 472.75 78.5145C472.73 79.5945 470.2 81.3645 468.71 81.5245C464.42 81.9645 460.06 81.6045 455.73 81.8145C440.68 82.5645 432.81 89.7145 430.99 104.674C430.18 111.264 429.76 117.944 429.72 124.584C429.57 151.074 429.65 177.574 429.64 204.064C429.64 210.814 429.39 211.014 422.55 211.014C411.25 211.014 399.94 211.014 387.78 211.014L387.79 211.004Z" fill="white"/>
<rect x="735" width="25.38" height="25.1" fill="white"/>
<path d="M852.152 100.385C857.132 93.635 861.622 87.545 866.112 81.455C875.192 69.155 884.102 56.725 893.502 44.665C895.282 42.385 898.892 40.635 901.822 40.355C908.422 39.725 915.132 40.095 921.792 40.245C923.142 40.275 924.462 41.125 925.802 41.595C925.332 42.885 925.122 44.375 924.342 45.445C906.562 69.705 888.782 93.955 870.822 118.075C868.342 121.405 869.852 123.505 871.672 125.995C886.412 146.105 901.132 166.225 915.862 186.345C920.382 192.515 924.972 198.635 929.362 204.905C930.192 206.095 930.952 208.275 930.402 209.245C929.792 210.325 927.662 210.985 926.172 211.035C919.682 211.235 913.132 211.625 906.712 210.955C903.822 210.655 900.292 208.705 898.552 206.385C884.292 187.375 870.402 168.085 856.372 148.905C852.352 143.415 851.332 143.305 847.362 148.705C833.672 167.315 819.992 185.935 806.552 204.735C803.332 209.235 799.772 211.635 794.102 211.235C788.802 210.865 783.442 211.275 778.122 211.075C776.442 211.015 774.132 210.575 773.352 209.445C772.742 208.555 773.632 206.055 774.562 204.775C788.302 185.795 802.162 166.895 816.002 147.985C821.592 140.345 827.212 132.715 832.832 125.085C835.392 121.605 833.462 118.725 831.462 116.045C826.202 108.985 820.682 102.105 815.472 95.015C803.562 78.805 791.742 62.535 780.002 46.205C779.052 44.885 779.012 42.925 778.542 41.265C780.072 40.905 781.602 40.275 783.142 40.245C789.472 40.125 795.802 40.305 802.132 40.135C805.812 40.035 808.322 41.395 810.512 44.405C822.662 61.055 834.972 77.595 847.242 94.155C848.592 95.985 850.052 97.725 852.152 100.375V100.385Z" fill="#00AD7D"/>
<path d="M658.083 85.6127C658.083 59.6227 658.083 33.6327 658.083 7.65266C658.083 0.652659 658.713 0.0626605 665.873 0.0326605C670.373 0.0126605 674.873 -0.0073402 679.363 0.0026598C683.383 0.0126598 685.433 1.73266 685.333 6.10266C685.153 14.9327 685.293 23.7627 685.303 32.5927C685.309 37.4593 687.829 39.906 692.863 39.9327C701.023 39.9527 709.193 40.0627 717.353 39.9127C721.633 39.8327 723.453 41.6327 723.323 45.8727C723.183 50.7027 723.293 55.5327 723.243 60.3627C723.203 64.1327 721.593 66.1927 717.473 66.1327C708.993 66.0127 700.503 66.2327 692.023 66.1227C686.723 66.0527 685.313 67.0527 685.313 72.2627C685.273 106.083 685.273 139.903 685.333 173.713C685.343 180.483 688.093 183.513 694.893 183.863C701.833 184.223 708.813 184.223 715.763 184.103C721.463 184.003 723.263 185.533 723.283 191.313C723.303 196.143 723.683 201.023 723.073 205.783C722.843 207.613 720.363 210.543 718.823 210.593C709.023 210.913 699.043 211.663 689.423 210.213C672.413 207.653 660.513 194.083 658.353 176.443C657.773 171.713 658.083 166.873 658.083 162.093C658.063 136.603 658.083 111.113 658.083 85.6227V85.6127Z" fill="#00AD7D"/>
<path d="M760.353 126.84C760.353 152.66 760.353 178.47 760.353 204.29C760.353 210.74 759.643 211.39 753.123 211.34C749.463 211.32 745.793 211.34 742.133 211.34C736.073 211.34 735.393 210.65 735.383 204.33C735.363 194 735.383 183.68 735.373 173.35C735.353 132.04 735.323 90.7396 735.303 49.4296C735.303 42.5896 735.863 42.0696 742.743 42.1396C746.743 42.1796 750.763 42.3996 754.723 42.0496C759.773 41.5996 760.473 44.2496 760.453 48.3896C760.333 69.0396 760.383 89.6996 760.373 110.35C760.373 115.85 760.373 121.34 760.373 126.84H760.353Z" fill="#00AD7D"/>
</svg>
