<svg width="300" height="240" viewBox="0 0 300 240" fill="none" xmlns="http://www.w3.org/2000/svg">
<g clip-path="url(#clip0_0_1)">
<path d="M275.1 166.4C275.1 194.6 260.4 221.5 224.8 219.6C214.5 219.6 206.6 219.5 199.5 219.5C145.8 221 68.9 219.6 56.3 220C38.7 220.5 24 202.4 25.2 182C26.5 161.5 46.7 151.7 46.7 151.7C46.7 151.7 33.1 118 51.7 93.7C70.4 69.4 97 80.5 97 80.5C97 80.5 108.8 34.5 148.3 33.3C175.3 32.5 194.1 38.9 204.5 57.5C211.3 66.2 215.3 77 215.3 88.7C215.3 89.7 215.3 90.6 215.2 91.6C219.3 90.9 230.2 90.1 234.3 105.9C234.3 105.9 234.4 112 234.9 116.8C258 122.1 275.1 142.3 275.1 166.4Z" fill="#F2F2F2"/>
<path d="M126.3 95.5H177C181.2 95.5 184.6 99 184.6 103.3V212.7C184.6 217 181.2 220.5 177 220.5H126.2C122 220.5 118.6 217 118.6 212.7V103.3C118.7 99 122.1 95.5 126.3 95.5Z" fill="#00AD7D"/>
<path d="M61 43.8C70.5 43.8 78.3 51.7 78.3 61.5C78.3 71.3 70.6 79.2 61.1 79.3C51.6 79.3 43.8 71.4 43.8 61.6C43.8 61.6 43.8 61.6 43.8 61.5C43.8 51.8 51.5 43.9 61 43.8Z" fill="#00AD7D"/>
<path d="M70.3 57.8C69.6 58 68.9 58 68.2 58C69 57.7 69.6 57.1 70 56.3C69.3 56.6 68.5 56.7 67.7 56.8C66.7 55.2 64.5 54.7 62.9 55.8C62.1 56.3 61.5 57.2 61.4 58.2C61.3 58.5 61.3 58.7 61.3 59C58.6 58.4 56.2 56.6 54.9 54.1C53.7 55.5 53.8 57.7 55.1 59C54.6 58.9 54.1 58.6 53.6 58.3C53.3 60 54.2 61.6 55.7 62.2C55.4 62.2 55.1 62.2 54.8 62.2C54.6 62.2 54.4 62.1 54.2 62C54.4 63.5 55.5 64.7 57 65C55.6 65.7 54 66 52.5 65.7C52.2 65.7 52 65.6 51.7 65.5C53.1 66.8 54.8 67.7 56.7 68C62 69 67.1 65.4 68.1 59.9V59.8C68.1 59.6 68.2 59.5 68.2 59.3C69 58.9 69.7 58.4 70.3 57.8Z" fill="white"/>
<path d="M119.9 20.5C130.6 20.5 139.2 29.4 139.2 40.3C139.2 51.2 130.5 60.1 119.9 60.1C109.2 60.1 100.6 51.2 100.6 40.3C100.6 29.3 109.3 20.5 119.9 20.5Z" fill="#00AD7D"/>
<path d="M121.6 40.3C121.6 41.3 120.9 42 119.9 42.1C119 42.1 118.2 41.4 118.2 40.4C118.2 39.5 118.9 38.7 119.9 38.6C120.8 38.6 121.6 39.3 121.6 40.3Z" fill="white"/>
<path d="M122.7 35L117 35.1C115.8 35.1 114.8 36.2 114.8 37.4L114.9 43.2C114.9 44.5 115.9 45.5 117.2 45.5L122.9 45.4C124.1 45.4 125.1 44.3 125.1 43.1L125 37.3C124.9 36 123.9 35 122.7 35ZM120 43.2C118.5 43.2 117.2 42 117.1 40.4C117.1 38.8 118.3 37.5 119.9 37.5C121.4 37.5 122.7 38.7 122.8 40.3C122.9 41.9 121.5 43.1 120 43.2ZM123.1 37.5C122.8 37.5 122.5 37.2 122.5 36.9C122.5 36.6 122.7 36.3 123.1 36.3C123.4 36.3 123.7 36.6 123.7 36.9C123.7 37.2 123.4 37.5 123.1 37.5Z" fill="white"/>
<path d="M124.3 30.4L115.2 30.6C112.4 30.7 110.2 33 110.2 35.9L110.4 45.2C110.5 48.1 112.8 50.3 115.5 50.3L124.6 50.1C127.4 50 129.6 47.7 129.6 44.8L129.4 35.5C129.4 32.6 127.1 30.3 124.3 30.4ZM126.2 43.1C126.2 45 124.8 46.6 122.9 46.6L117.2 46.7C115.3 46.7 113.8 45.2 113.8 43.3L113.7 37.5C113.7 35.6 115.1 34 117 34L122.7 33.9C124.6 33.9 126.1 35.4 126.1 37.3L126.2 43.1Z" fill="white"/>
<path d="M194.3 27.3C205 27.3 213.6 36.2 213.6 47.1C213.6 58 204.9 67 194.3 67C183.7 67 175 58.1 175 47.2C174.9 36.2 183.6 27.3 194.3 27.3Z" fill="#00AD7D"/>
<path d="M197.5 40.2H199.4V36.9C198.5 36.8 197.6 36.8 196.7 36.8C194 36.8 192.2 38.5 192.2 41.7V44.6H189.2V48.3H192.2V57.6H195.8V48.3H198.6L199 44.6H195.7V42C195.7 40.9 196 40.2 197.5 40.2Z" fill="white"/>
<path d="M47.3 102.6C58.1 102.5 67 111.4 67.1 122.5C67.2 133.6 58.5 142.7 47.7 142.8C36.9 142.9 28 134 27.9 122.9C27.9 122.8 27.9 122.8 27.9 122.7C27.8 111.7 36.5 102.7 47.3 102.6Z" fill="#00AD7D"/>
<path d="M48.1 122.5H57.2V113.8C57.2 113.5 56.9 113.2 56.6 113.2H48.1V122.5Z" fill="white"/>
<path d="M46.9 122.5V113.2H38.4C38.1 113.2 37.8 113.5 37.8 113.8V122.5H46.9Z" fill="white"/>
<path d="M46.9 123.7H37.8V132.4C37.8 132.7 38.1 133 38.4 133H46.9V123.7Z" fill="white"/>
<path d="M48.1 123.7V133H56.6C56.9 133 57.2 132.7 57.2 132.4V123.7H48.1Z" fill="white"/>
<path d="M247.8 73C257.3 73 265.1 80.9 265.1 90.7C265.1 100.5 257.4 108.4 247.9 108.5C238.4 108.5 230.6 100.6 230.6 90.8C230.6 90.8 230.6 90.8 230.6 90.7C230.6 81 238.3 73.1 247.8 73Z" fill="#00AD7D"/>
<path d="M242.4 92.4L241.7 94.9L239.3 95C237.8 92.2 237.8 88.9 239.2 86.1L241.3 86.5L242.2 88.7C241.9 89.8 242 91.2 242.4 92.4Z" fill="white"/>
<path d="M256.8 88.6C257.4 92.1 256.2 95.6 253.5 97.8L250.8 97.7L250.4 95.3C251.5 94.6 252.3 93.6 252.8 92.4H247.8V88.6H256.8Z" fill="white"/>
<path d="M253.4 97.9C249.4 101.2 243.5 100.5 240.3 96.4C239.9 95.9 239.6 95.5 239.4 94.9L242.4 92.4C243.5 95.3 246.7 96.8 249.5 95.7C249.8 95.6 250.1 95.4 250.3 95.3L253.4 97.9Z" fill="white"/>
<path d="M253.5 83.1L250.5 85.6C247.9 83.9 244.5 84.8 242.9 87.4C242.7 87.8 242.5 88.2 242.4 88.6L239.4 86.1C241.8 81.4 247.4 79.6 252 82C252.5 82.2 253 82.6 253.5 83.1Z" fill="white"/>
<path d="M121.5 109.6H160.2" stroke="white" stroke-width="2" stroke-linecap="round"/>
<path d="M164.4 109.6H171" stroke="white" stroke-width="2" stroke-linecap="round"/>
<path d="M144.5 204.7C144.5 204.7 150 212.6 157.2 204.7" stroke="white" stroke-width="2" stroke-linecap="round"/>
<path d="M168.9 119.1H270.6C272 119.1 273.1 120.3 273.1 121.7V158.8C273.1 160.2 272 161.4 270.6 161.4H168.9C167.5 161.4 166.4 160.2 166.4 158.8V121.7C166.4 120.2 167.5 119.1 168.9 119.1Z" fill="white"/>
<path d="M230.3 125V131.9" stroke="#41465A" stroke-linecap="round"/>
<path d="M233.7 128.5H227" stroke="#41465A" stroke-linecap="round"/>
<path d="M232.7 126L227.9 130.9" stroke="#41465A" stroke-linecap="round"/>
<path d="M227.9 126L232.7 130.9" stroke="#41465A" stroke-linecap="round"/>
<path d="M238.8 125V131.9" stroke="#41465A" stroke-linecap="round"/>
<path d="M242.2 128.5H235.4" stroke="#41465A" stroke-linecap="round"/>
<path d="M241.2 126L236.4 130.9" stroke="#41465A" stroke-linecap="round"/>
<path d="M236.4 126L241.2 130.9" stroke="#41465A" stroke-linecap="round"/>
<path d="M249.6 125V131.9" stroke="#41465A" stroke-linecap="round"/>
<path d="M253 128.5H246.2" stroke="#41465A" stroke-linecap="round"/>
<path d="M252 126L247.2 130.9" stroke="#41465A" stroke-linecap="round"/>
<path d="M247.2 126L252 130.9" stroke="#41465A" stroke-linecap="round"/>
<path d="M258.1 125V131.9" stroke="#41465A" stroke-linecap="round"/>
<path d="M261.4 128.5H254.6" stroke="#41465A" stroke-linecap="round"/>
<path d="M260.5 126L255.7 130.9" stroke="#41465A" stroke-linecap="round"/>
<path d="M255.7 126L260.5 130.9" stroke="#41465A" stroke-linecap="round"/>
<path d="M221.9 125V131.9" stroke="#41465A" stroke-linecap="round"/>
<path d="M225.3 128.5H218.5" stroke="#41465A" stroke-linecap="round"/>
<path d="M224.3 126L219.5 130.9" stroke="#41465A" stroke-linecap="round"/>
<path d="M219.5 126L224.3 130.9" stroke="#41465A" stroke-linecap="round"/>
<path d="M266.5 125V131.9" stroke="#41465A" stroke-linecap="round"/>
<path d="M269.9 128.5H263.1" stroke="#41465A" stroke-linecap="round"/>
<path d="M268.9 126L264.1 130.9" stroke="#41465A" stroke-linecap="round"/>
<path d="M264.1 126L268.9 130.9" stroke="#41465A" stroke-linecap="round"/>
<path d="M214.6 139.9H170.6C170.1 139.9 169.8 140.3 169.8 140.8V144.3C169.8 144.8 170.2 145.2 170.6 145.2H214.6C215.1 145.2 215.4 144.8 215.4 144.3V140.8C215.4 140.3 215.1 139.9 214.6 139.9Z" fill="#CACBD1"/>
<path d="M214.6 149.4H170.6C170.1 149.4 169.8 149.8 169.8 150.3V153.8C169.8 154.3 170.2 154.7 170.6 154.7H214.6C215.1 154.7 215.4 154.3 215.4 153.8V150.3C215.4 149.8 215.1 149.4 214.6 149.4Z" fill="#CACBD1"/>
<path d="M183.3 125C182.8 125.2 182.3 125.4 181.7 125.5C182.3 125.1 182.7 124.6 182.9 123.9C182.4 124.2 181.8 124.5 181.1 124.6C180.1 123.5 178.3 123.4 177.2 124.5C176.6 125 176.3 125.8 176.3 126.6C176.3 126.8 176.3 127 176.4 127.3C174.2 127.2 172.1 126.1 170.7 124.3C170 125.6 170.3 127.3 171.6 128.1C171.2 128.1 170.7 128 170.3 127.8C170.3 129.2 171.2 130.3 172.5 130.6C172.3 130.7 172 130.7 171.8 130.7C171.6 130.7 171.4 130.7 171.3 130.6C171.7 131.8 172.7 132.6 173.9 132.6C172.9 133.4 171.7 133.8 170.5 133.8C170.3 133.8 170.1 133.8 169.8 133.8C171.1 134.6 172.6 135.1 174.1 135.1C178.4 135.1 182 131.5 182 127.1V127C182 126.9 182 126.8 182 126.6C182.4 126 182.9 125.5 183.3 125Z" fill="#00AD7D"/>
<path d="M263.7 152.9C267 152.9 269.6 150.2 269.6 146.8C269.6 143.4 266.9 140.7 263.7 140.7C260.5 140.7 257.8 143.4 257.8 146.8C257.8 150.2 260.4 152.9 263.7 152.9Z" fill="#41465A"/>
<path d="M262.5 143.2V147.5H266.7" stroke="white" stroke-width="0.75" stroke-linecap="round" stroke-linejoin="round"/>
<path d="M184.1 190.9C192 190.9 198.4 197.5 198.4 205.6C198.4 213.7 192 220.3 184.1 220.3C176.2 220.3 169.8 213.7 169.8 205.6C169.8 197.4 176.2 190.9 184.1 190.9Z" fill="white"/>
<path d="M190.2 199.7C190.2 199.7 187.3 195.2 181.2 197.4C181.2 197.4 175.2 199.7 176.3 207.2" stroke="#41465A" stroke-width="2" stroke-linecap="round" stroke-linejoin="round"/>
<path d="M173.8 203.4L176.2 207.2L179.4 203.4" stroke="#41465A" stroke-width="2" stroke-linecap="round" stroke-linejoin="round"/>
<path d="M178.6 212C178.6 212 181.5 216.5 187.6 214.3C187.6 214.3 193.6 212 192.5 204.5" stroke="#41465A" stroke-width="2" stroke-linecap="round" stroke-linejoin="round"/>
<path d="M194.9 208.3L192.5 204.5L189.3 208.3" stroke="#41465A" stroke-width="2" stroke-linecap="round" stroke-linejoin="round"/>
<path d="M107.6 186.3L112 188.1C112 188.1 112.6 187.2 112.6 179.9C112.6 179.7 107.6 179.9 107.6 179.9V186.3Z" fill="#FDB194"/>
<path d="M103.5 209.3L101.7 213.8C101.7 213.8 102.5 214.4 109.6 214.5C109.8 214.5 109.6 209.4 109.6 209.4H103.5V209.3Z" fill="#FDB194"/>
<path d="M101.9 213.4C101.9 213.5 96.4 216.1 93.6 217.5C92.6 218 92 219 92 220.1H110.1L109.7 214C109.7 214 102.4 214.4 101.9 213.4Z" fill="#D9DBDD"/>
<path d="M111.6 189.3C111.7 189.3 114.3 194.9 115.6 197.8C116 198.8 117 199.4 118.1 199.4V180.9L112.2 181.3C112.2 181.3 112.6 188.7 111.6 189.3Z" fill="#CBCBCB"/>
<path d="M98.1 141.6C98.1 141.6 86.1 163.3 85.9 163.8C85.7 164.3 84.4 165.7 85 170.8C85.6 175.9 99.3 184.8 99.3 184.8C99.3 184.8 105.5 187.6 105.8 187.9C106 187 106 183.5 105.8 179.5C102.7 173.8 97 169.5 97 169.5L104.8 159.4L98.1 141.6Z" fill="#303540"/>
<path d="M117.5 136.3C117.5 136.3 117.7 141.5 117.5 146.3C117.2 149.9 116.8 153.5 116.1 157.1L109.6 210.1C109.6 210.1 103.7 210.5 103.3 209.5C102.2 196.2 99.5 157.1 99.5 157.1L97.2 140.1L117.5 136.3Z" fill="#41465A"/>
<path d="M115.1 142.5C115.1 142.5 105.7 141.4 97.6 142.3L97.4 141.1L117 139.7L115.4 142.2L115.1 142.5Z" fill="#00AD7D"/>
<path d="M96.8 130.2C96.8 130.2 92.9 130.1 92.4 129.6C91.9 129 81.4 118.5 81.4 117.1C81.4 115.6 81.4 112.1 81.4 112.1C81.4 112.1 80.5 111.8 80.5 112.6C80.4 113.7 80.2 114.8 80 115.8C80 115.8 76.6 111.7 76 111.4C75.7 111.3 75.3 111.3 75.1 111.6C75.1 111.6 74.7 112.4 75.1 112.8C75.9 113.6 76.7 114.4 77.3 115.4C77.4 116 74.4 117.4 74.7 118.2C75.3 120.3 75.8 118.7 79.7 123.8C83.5 128.9 88.5 134.7 89.6 135.4C90.5 136 91.5 136.3 92.5 136.4C93.4 136.4 95.3 134.6 95.3 134.6" fill="#FDB194"/>
<path d="M118.1 119.5C117.6 118.8 118.9 125.9 120.6 131.7C122.3 137.4 126.4 139.7 127.3 136.7C126.8 128.3 125.5 124.6 123.9 119.1C123.8 119.2 118.6 120.2 118.1 119.5Z" fill="#FDB194"/>
<path d="M117.6 142.6C114.2 141.7 110.7 141.2 107.2 141.2H105C102.1 141.3 99.7 141.5 98.1 141.6C97.5 141.7 96.9 141.2 96.9 140.6C96.9 140.5 96.9 140.4 96.9 140.2L98.6 132.2C99.7 127 99.7 121.7 98.5 116.5L97.5 112.2C97.4 111.6 99.3 108.5 99.7 107.9C100.2 107.7 100.7 107.5 101.3 107.4C102.2 107.2 103.1 107 104 106.9L109.3 106.3C112.9 105.8 118.4 107.6 118.6 107.8C118.6 107.8 123.4 111.9 124 115.6C124.4 117.3 124.5 119 124.4 120.7C122.3 121.4 120.1 121.4 118 120.7C117.9 120.6 117.7 120.6 117.6 120.5C117.5 120.9 117.5 121.4 117.4 121.8C116.9 124.8 116.6 127.9 117 130.9C117.6 135.8 118.3 142.3 118.1 142.4C118 142.5 117.9 142.5 117.8 142.5C117.9 142.7 117.7 142.7 117.6 142.6Z" fill="#00AD7D"/>
<path d="M118.1 121.1C118.1 121.1 121.4 122.5 124.6 121.7L124.4 121L118.1 120.9V121.1Z" fill="#EBA38C"/>
<path d="M106.4 146.5C106.4 146.5 113 148.9 116.2 154.5L108.2 154.3L106.4 146.5Z" fill="#303540"/>
<path d="M126.8 137.4C125.9 139.5 115.3 151.7 113.6 152.1C113.7 152 112.4 156.3 111.4 156.6C110.4 156.9 111.8 154 111.8 154L111.5 154.2C111.5 154.2 110 156.5 109.5 156.5C109.1 156.6 108.7 156.3 109 155.6C109.6 154.7 110.2 153.8 110.8 153C110.8 153 108 155.6 107.7 155.5C107.7 155.5 107 155.3 107.3 154.7C108.2 153.6 109.1 152.6 110.1 151.7C110.1 151.7 107 154.1 106.7 153.7C106.8 153.8 105.9 153.4 106.6 152.4C107.4 151.5 109.5 149 109.5 149C109.5 149 109.6 148.6 109.1 148.7C108.3 148.7 107.5 148.5 106.7 148.3C106.7 148.3 105.8 147.8 106.7 147.4C106.7 147.3 108.7 147.5 109.1 147.4C110.3 146.8 111.4 146.2 112.4 145.4L122.3 134.2C122.4 134.3 127.6 135.3 126.8 137.4Z" fill="#FDB194"/>
<path d="M106.4 146.2C106.4 146.2 110.8 152 116.1 154.3C115.9 154.2 108.8 160.1 106.4 158C104 155.9 106.4 146.2 106.4 146.2Z" fill="#41465A"/>
<path d="M99.6 119.5C100.1 118.9 98.9 125.3 97.3 130.6C95.7 135.8 92 137.9 91.2 135.2C91.7 127.5 92.9 124.2 94.3 119.2C94.4 119.2 99.1 120.1 99.6 119.5Z" fill="#FDB194"/>
<path d="M99.5 121.6C99.5 121.6 98 122.9 93.4 122.3L93.7 121.4L99.5 121.6Z" fill="#EBA38C"/>
<path d="M100.8 108.1C99.3 106.8 94.9 112.8 94.2 116.4C93.6 120 92.8 121.2 93.1 121.3C95.5 122 98 122 100.4 121.3C103.5 120.2 102.3 109.4 100.8 108.1Z" fill="#00AD7D"/>
<path d="M116.1 90.4V96.6C116.1 101.5 112.6 105.6 107.9 106.3V106.4H95.6C93.5 104.4 95.9 91.2 97.4 86.8C97.8 85.7 98.2 85.1 98.5 85C101.4 80.4 107.3 79.1 111.8 82.1C114.5 83.9 116.2 87 116.1 90.4Z" fill="#00AD7D"/>
<path d="M113.7 88.1C113.8 90.6 113 93 111.4 94.9C112.2 99.3 113.7 107.1 113.9 108.5C114.1 110.4 106.2 108.5 106.2 108.5L107.6 98.4C105.5 99.8 103.4 100.4 102.4 100.2C99.9 99.5 99.7 90 101.6 86.2C102.5 84.4 105.4 83 108 83C110.8 82.9 113.4 84.3 113.7 88.1Z" fill="#FDB194"/>
<path d="M115.8 88.3C115.5 88 115.2 87.7 114.9 87.5V87.2C114.3 86.1 113.5 85 112.7 84.1C111.9 83.3 111.1 82.5 110.1 82C109.1 81.4 107.9 81 106.7 81C104.9 80.9 103 81.4 101.4 82.3C100.4 83 99.5 83.9 98.8 85C99.1 86.1 99.8 87 100.8 87.6C101.8 88.3 102.9 88.8 104 89.2C105.1 89.6 106.1 90.2 107.1 90.7C107.5 90.4 108 90.2 108.6 90.2C109.8 90.2 110.9 91.1 111 92.4C110.9 93.7 109.9 94.7 108.6 94.6H108.5C108.3 97 108.2 99.3 108.4 101.7C108.5 103.3 108.8 105.4 109.7 106.2H122.1C122.2 105 122.2 103.7 122 102.5C121.9 101.6 121.7 100.8 121.4 100C120.9 98.8 120.1 97.8 119.2 96.9C119.2 97 115.3 94.3 115.8 88.3Z" fill="#00AD7D"/>
<path d="M106.3 106.9C106.3 106.9 105.1 110 105.8 111.9C106.5 113.7 108.9 114.3 108.9 114.3C108.9 114.3 111.6 115.2 113.1 113.4C114.6 111.6 113.6 107 113.6 107L106.3 106.9Z" fill="#FDB194"/>
<path d="M143.2 139H156.1C157.4 139 158.8 139.3 160 139.8C162.4 140.8 164.3 142.8 165.4 145.2C165.9 146.4 166.2 147.8 166.2 149.1V162C166.2 163.3 165.9 164.7 165.4 165.9C164.4 168.3 162.4 170.2 160 171.3C158.8 171.8 157.4 172.1 156.1 172.1H143.2C141.9 172.1 140.5 171.8 139.3 171.3C136.9 170.3 135 168.3 133.9 165.9C133.4 164.7 133.1 163.3 133.1 162V149.1C133.1 143.5 137.6 139 143.2 139C143.1 139 143.1 139 143.2 139Z" fill="#00AD7D"/>
<path d="M142.2 165.8C143.2 166.6 144.4 167.2 145.6 167.7C149.3 169 153.5 168.4 156.7 166.1C156.8 166 156.9 165.9 157.1 165.9C157.2 165.9 157.3 165.9 157.5 165.9C157.6 165.9 157.7 166 157.8 166.1C157.9 166.2 158 166.3 158.1 166.4C158.2 166.5 158.3 166.7 158.3 166.8C158.3 166.9 158.3 167.1 158.3 167.2C158.3 167.5 158.1 167.7 157.8 167.8C152.8 171.5 145.9 171.4 141 167.5C140.9 167.4 140.8 167.3 140.7 167.2C140.6 167.1 140.6 166.9 140.6 166.8C140.6 166.7 140.6 166.5 140.6 166.4C140.6 166.3 140.7 166.2 140.7 166.1C140.8 166 140.8 165.9 141 165.8C141.1 165.7 141.2 165.7 141.4 165.6C141.5 165.6 141.7 165.6 141.8 165.6C141.9 165.7 142.1 165.7 142.2 165.8ZM163.9 155.1V155.6C163.9 156.5 163.8 157.4 163.7 158.2C163.6 159.1 163.3 159.9 163 160.7C162.4 162.4 161.5 163.9 160.4 165.3C160.3 165.4 160.2 165.5 160.1 165.5C160 165.6 159.9 165.6 159.7 165.6C159.6 165.6 159.4 165.6 159.3 165.6C159.2 165.6 159.1 165.5 159 165.4C158.9 165.3 158.8 165.2 158.8 165.1C158.7 165 158.7 164.8 158.7 164.7C158.7 164.6 158.7 164.4 158.7 164.3C158.7 164.2 158.8 164.1 158.9 164C160.2 162.5 161.1 160.7 161.6 158.7C161.9 157.7 161.9 156.6 161.9 155.6V155.3C161.9 155.2 161.9 155 161.9 154.9C161.9 154.8 162 154.7 162.1 154.5C162.2 154.4 162.3 154.3 162.4 154.2C162.5 154.1 162.6 154.1 162.8 154C162.9 154 163.1 154 163.2 154C163.3 154 163.4 154.1 163.5 154.2C163.6 154.3 163.7 154.4 163.8 154.5C163.8 154.8 163.9 154.9 163.9 155.1ZM137.5 158.9C137.6 159.3 137.8 159.7 137.9 160.2C138.1 160.6 138.2 161 138.4 161.4C138.6 161.8 138.8 162.2 139 162.6C139.2 163 139.5 163.3 139.7 163.7C139.8 163.8 139.9 163.9 139.9 164C139.9 164.1 139.9 164.3 139.9 164.4C139.9 164.5 139.8 164.7 139.8 164.8C139.7 164.9 139.7 165 139.6 165.1C139.5 165.2 139.4 165.3 139.3 165.3C139.2 165.3 139 165.3 138.9 165.3C138.8 165.3 138.6 165.2 138.5 165.2C138.4 165.1 138.3 165.1 138.2 165C137.9 164.6 137.6 164.2 137.3 163.7C137 163.3 136.8 162.8 136.5 162.3C136.3 161.8 136.1 161.4 135.9 160.9C135.7 160.4 135.6 159.9 135.4 159.4C135.3 159.1 135.4 158.8 135.5 158.6C135.6 158.5 135.7 158.4 135.8 158.3C135.9 158.2 136.1 158.1 136.2 158.1C136.3 158.1 136.5 158.1 136.6 158.1C136.7 158.1 136.8 158.2 136.9 158.3C137.3 158.4 137.5 158.6 137.5 158.9ZM154.2 147.6C155.2 148.2 156.1 149.1 156.8 150.1C158.2 152.1 158.8 154.5 158.4 156.9C157.8 160.6 155.1 163.6 151.5 164.5C150.4 164.8 149.2 164.8 148 164.7C146.8 164.5 145.6 164.1 144.6 163.4C143.6 162.8 142.7 161.9 142 160.9C140.3 158.6 139.8 155.6 140.7 152.8C141 151.8 141.5 150.8 142.2 150C142.2 149.9 142.3 149.9 142.3 149.8C142.5 149.5 142.7 149.3 143 149C143.2 148.7 143.5 148.5 143.8 148.3C144.1 148.1 144.4 147.9 144.7 147.7C144.9 147.6 145.2 147.5 145.5 147.6C145.6 147.6 145.7 147.7 145.9 147.7C146 147.8 146.1 147.8 146.2 147.9C146.3 148.2 146.4 148.4 146.3 148.7C146.3 148.8 146.2 148.9 146.2 149.1C146.1 149.2 146.1 149.3 146 149.4C144.4 150.4 143.3 152 142.9 153.9C142.5 155.7 142.8 157.7 143.8 159.3C145.8 162.6 150 163.6 153.3 161.7C153.4 161.7 153.4 161.6 153.5 161.6C155.1 160.6 156.2 159 156.6 157.1C157 155.3 156.7 153.3 155.7 151.7C155.6 151.5 155.4 151.2 155.2 151C155 150.8 154.8 150.6 154.6 150.4C154.4 150.2 154.2 150 154 149.8C153.8 149.6 153.6 149.4 153.3 149.3C153.2 149.2 153.1 149.1 153 149C152.9 148.9 152.9 148.8 152.8 148.6C152.8 148.5 152.8 148.3 152.8 148.2C152.8 148.1 152.9 147.9 152.9 147.8C153 147.7 153.1 147.7 153.2 147.6C153.3 147.5 153.4 147.5 153.6 147.5C153.7 147.5 153.9 147.5 154 147.5C154 147.4 154.1 147.5 154.2 147.6ZM143.9 143C144 143.1 144 143.3 144 143.4C144 143.5 144 143.7 144 143.8C144 143.9 143.9 144.1 143.8 144.2C143.7 144.3 143.6 144.4 143.5 144.5C142.5 145.1 141.7 145.7 140.9 146.5C139.3 148.1 138.2 150.1 137.6 152.2C137.3 153.3 137.2 154.4 137.2 155.5C137.2 155.6 137.2 155.8 137.1 155.9C137 156.2 136.8 156.4 136.5 156.5C136.3 156.6 136 156.6 135.7 156.5C135.5 156.4 135.3 156.2 135.1 155.9C135 155.8 135 155.6 135 155.5C135 152.9 135.7 150.3 137 148C137.6 146.9 138.4 145.8 139.3 144.9C140.2 144 141.2 143.1 142.4 142.5C142.5 142.5 142.7 142.5 142.8 142.5C142.9 142.5 143.1 142.5 143.2 142.6C143.3 142.6 143.4 142.7 143.6 142.8C143.7 142.7 143.8 142.8 143.9 143ZM156 142.3C156.9 142.8 157.7 143.3 158.5 143.9C159.3 144.5 160 145.2 160.6 146C161.2 146.8 161.8 147.6 162.2 148.5C162.7 149.4 163 150.3 163.3 151.2C163.3 151.3 163.3 151.5 163.3 151.6C163.3 151.7 163.2 151.9 163.2 152C163.1 152.1 163.1 152.2 163 152.3C162.9 152.4 162.8 152.5 162.7 152.5C162.6 152.5 162.4 152.5 162.3 152.5C162.2 152.5 162 152.4 161.9 152.4C161.8 152.3 161.7 152.3 161.6 152.2C161.5 152.1 161.4 152 161.4 151.9C161.2 151.1 160.9 150.3 160.5 149.5C160.1 148.8 159.6 148 159.1 147.4C158.6 146.7 158 146.1 157.3 145.6C156.6 145 155.9 144.6 155.2 144.1C155.1 144 155 143.9 154.9 143.8C154.8 143.7 154.8 143.6 154.7 143.4C154.7 143.3 154.7 143.1 154.7 143C154.7 142.9 154.8 142.7 154.8 142.6C154.8 142.5 154.9 142.4 155 142.3C155.1 142.2 155.2 142.2 155.3 142.1C155.4 142.1 155.6 142 155.7 142C155.8 142.2 155.9 142.2 156 142.3Z" fill="white"/>
<path d="M149.6 140.8C149.9 140.8 150.1 140.9 150.3 141.1C150.4 141.2 150.5 141.3 150.5 141.4C150.6 141.5 150.6 141.7 150.6 141.8V150.7C150.6 151.2 150.8 151.6 151.2 151.8C151.6 152 151.9 152.2 152.2 152.5C152.7 152.9 153 153.5 153.2 154.1C153.4 154.8 153.6 155.5 153.6 156.2C153.6 157.1 153.5 158 153.3 158.8C153.2 159.1 153.1 159.3 152.9 159.4C152.8 159.5 152.7 159.5 152.5 159.6C152.4 159.6 152.2 159.6 152.1 159.6C151.8 159.5 151.6 159.4 151.5 159.2C151.4 159.1 151.4 159 151.3 158.8C151.3 158.7 151.3 158.5 151.3 158.4C151.3 158.3 151.3 158.3 151.3 158.2C151.3 158.1 151.3 158.1 151.3 158C151.3 158 151.3 157.9 151.3 157.8C151.3 157.7 151.3 157.7 151.3 157.6H150C149.9 157.6 149.7 157.6 149.6 157.5C149.3 157.4 149.1 157.2 149 156.9C148.9 156.8 148.9 156.6 148.9 156.5C148.9 156.4 148.9 156.2 149 156.1C149 156 149.1 155.9 149.2 155.8C149.3 155.7 149.4 155.6 149.5 155.6C149.6 155.5 149.8 155.5 149.9 155.5H151.3C151.3 155.2 151.3 154.9 151.2 154.7C151.1 154.4 151 154.2 150.8 154C150.6 153.8 150.4 153.6 150.2 153.5C149.9 153.4 149.7 153.2 149.4 153.2C149.2 153.2 149.1 153.3 148.9 153.4C148.6 153.6 148.3 153.8 148.1 154.1C148 154.2 147.9 154.4 147.8 154.6C147.7 154.9 147.6 155.2 147.6 155.5C147.5 155.8 147.5 156.1 147.5 156.4C147.5 156.7 147.5 157 147.5 157.4C147.5 157.7 147.6 158.1 147.6 158.4C147.7 158.7 147.6 159 147.5 159.2C147.4 159.5 147.1 159.7 146.8 159.7C146.5 159.8 146.2 159.7 146 159.6C145.7 159.5 145.5 159.2 145.5 158.9V159C145.3 158.1 145.3 157.2 145.3 156.3C145.3 155.6 145.5 154.9 145.7 154.2C146 153.2 146.7 152.4 147.6 151.9C148 151.7 148.3 151.2 148.3 150.8V144.8L147.1 144.9C147 144.9 146.8 144.9 146.7 144.8C146.6 144.8 146.5 144.7 146.4 144.6C146.3 144.5 146.2 144.4 146.2 144.3C146.1 144.2 146.1 144 146.1 143.9C146.1 143.6 146.2 143.4 146.4 143.2C146.5 143.1 146.6 143 146.7 143C146.8 142.9 146.9 142.9 147.1 142.9L148.5 142.8V142C148.4 141.9 148.4 141.7 148.4 141.5C148.4 141.4 148.5 141.2 148.6 141.1C148.7 141 148.8 140.9 148.9 140.8C149.3 140.9 149.4 140.8 149.6 140.8Z" fill="black"/>
</g>
<defs>
<clipPath id="clip0_0_1">
<rect width="300" height="240" fill="white"/>
</clipPath>
</defs>
</svg>
