<svg width="300" height="240" viewBox="0 0 300 240" fill="none" xmlns="http://www.w3.org/2000/svg">
<g clip-path="url(#clip0_0_1)">
<mask id="mask0_0_1" style="mask-type:luminance" maskUnits="userSpaceOnUse" x="25" y="20" width="250" height="200">
<path d="M275 20H25V220H275V20Z" fill="white"/>
</mask>
<g mask="url(#mask0_0_1)">
<path opacity="0.5" d="M25 205.2H274.5V209.1C274.5 215.1 269.6 220 263.7 220H35.8C29.8 220 25 215.1 25 209.1V205.2Z" fill="#3D4069"/>
<path opacity="0.69" d="M263.6 220H35.8C32.9 220 30.2 218.9 28.1 216.8C26.1 214.8 24.9 212 24.9 209.1V205.4C24.9 207.3 25.7 209.2 27.1 210.5C28.5 211.9 30.3 212.6 32.2 212.6H267C271 212.6 274.3 209.3 274.3 205.2V209.1C274.3 212 273.2 214.8 271.1 216.8C269.3 218.9 266.5 220 263.6 220Z" fill="#3D4069"/>
<path d="M41 55.6H257.9C263.5 55.6 268 60.1 268 65.7V195.7C268 201.3 263.5 205.8 257.9 205.8H41C35.4 205.8 30.9 201.3 30.9 195.7V65.7C30.9 60.1 35.4 55.6 41 55.6Z" fill="#5A5D7F"/>
<path d="M40 61.5H259.4C261.2 61.5 262.7 63 262.7 64.9V196.6C262.7 198.5 261.2 200 259.4 200H40C38.2 200 36.7 198.5 36.7 196.6V64.8C36.7 63 38.2 61.5 40 61.5Z" fill="#F2F2F2" stroke="#B77865" stroke-width="0.25" stroke-miterlimit="10"/>
<path d="M269.7 182.6L269.9 182.3L274.9 186.3L272.9 188.6L272.4 188.2L271.9 189.5L270.7 191.3L263.1 200.5L262.1 199.7C262.1 199.7 264.9 192.8 264.8 191.9L265.8 187.1L269.7 182.6Z" fill="#00AD7D"/>
<path d="M233.3 86.4C233.2 86.3 235.8 98.2 235.8 98.2H228.5L229.8 89.4C229.8 89.4 226.3 92.2 224.2 91.2C222 90.3 223.4 81.2 223.4 81.2C223.4 81.2 223.6 76.6 228.9 76.1C234.2 75.6 235.4 79.5 235.4 79.5C235.4 79.5 236.2 84.2 233.3 86.4Z" fill="#FDB194"/>
<path d="M226.2 125.5C226.1 125.6 222.3 126.9 222.1 126.9C221.7 126.5 219 124.6 218.9 124C218.7 123.3 222.4 110.8 224.7 106.9C227 103.1 229.6 94.3 229.6 94.3L231.5 93.3C231.5 93.3 225.2 122.4 226.2 125.5Z" fill="#DBE1E7"/>
<path d="M231.5 93.6C231.5 93.6 222.4 125 227.5 132.1H245.9L249 124.8L246.5 115.5C246.5 115.5 251.3 124 252.3 124.2C253.3 124.4 259.3 124.2 259.3 124.2C259.3 124.2 253.3 99 234.7 92.1C234.6 91.9 231.5 93.6 231.5 93.6Z" fill="#00AD7D"/>
<path d="M232 85.1L233.5 87C235.9 85.1 236.9 81.7 235.4 78.9C234.2 76.3 232.3 75.3 230.7 75C229.3 74.7 227.9 74.9 226.6 75.4C225.7 75.8 224.4 76.3 224 76.6C224 76.6 223.9 78.5 224.8 78.8C225.2 78.9 225.6 79 226 79C227.3 79.2 228.5 79.7 229.4 80.8C229.6 81 229.7 81.2 229.7 81.3C229.6 81.7 229 86.4 227.8 87C226.6 87.6 223.2 85.2 223.1 85.9C223 86.6 223.1 87.4 223.1 87.4C223.1 87.4 225 88.2 225 88.5C225 88.8 224 89.3 223.3 89.2C223.3 89.8 223.7 91 224.3 91.1C224.9 91.6 228.8 91.1 229.8 89.5C230.8 87.9 230.6 81.9 230.6 81.9C230.6 81.9 233.8 82.5 232 85.1Z" fill="#00AD7D"/>
<path d="M203.2 116.8L199.3 112.1C199.3 112.1 192.9 108.7 192.7 107.5C192.6 107.2 192.5 107 192.4 106.7C192.4 106.7 192.5 106.2 192.8 106.2C193.1 106.2 197.5 106.9 197.5 106.9C198.1 106.7 198.4 106.2 198.3 105.6C198.2 104.9 198.2 104.3 198.3 103.6C198.3 103.6 198.5 103.3 199 103.7C199.6 104.1 202.3 109.7 202.3 109.7L205 111.6L203.2 116.8Z" fill="#FDB194"/>
<path d="M247.2 133.8V163.6L270.1 182.3L266.3 186.7C266.3 186.7 240.8 170.1 239.8 168.2C238.7 166.4 227.4 131.8 227.4 131.8H247.3L247.2 133.8Z" fill="#41465A"/>
<path d="M255.2 124.1L247 138.2C247 138.2 247.1 142.8 247.7 142.9C247.6 142.9 247.7 143.3 247.7 143.3C247.3 143.5 246.9 143.5 246.5 143.3C245.9 143 245.6 141.6 245.3 141.5C245 141.4 244.5 140.7 240.6 142.1C239.8 142.5 238.8 142.5 238 142.1C237.4 141.8 236.9 141.4 236.4 141C236.4 141 235.6 140.4 237.1 139.7C238.6 139.1 243.9 136.4 243.9 136.1C243.9 135.8 245.8 131.8 245.8 131.8L250.1 121.4L252 123.8L255.2 124.1Z" fill="#FDB194"/>
<path d="M235.3 155.2L219.7 198.6H213.7L227.7 132.1L235.3 155.2Z" fill="#41465A"/>
<path d="M219.8 198.9L220.2 205H217.2V204.4L213.4 205H201.7V203.7C201.7 203.7 213.2 199.9 213.4 198.5L219.8 198.6V198.9Z" fill="#00AD7D"/>
<path d="M218.9 124C219.1 124.4 207.8 123.2 200.5 114.2C200.6 114 202.4 109.8 202.4 109.8C202.4 109.8 211.4 113.7 214.2 113.5C214.5 113.3 216.1 113.8 218 112.1C219.9 110.3 228.9 94.5 229.6 94.3C229.7 94.2 226.2 105.3 224.7 107.1C223.2 108.9 218.7 123.7 218.9 124Z" fill="#00AD7D"/>
<path d="M208 104.6C208 104.6 202.3 95.1 199.7 91.8C198.8 90.8 198.6 91.1 197.6 91.4C196.6 91.8 190.5 94 190.5 94C190.1 94.4 189.9 95 189.9 95.6C190.1 96.4 199.8 111.7 200.3 111.9C200.6 112 204 110.4 206.8 109.3C208.5 108.6 210 107.9 209.7 107.5C209.2 106.7 208 104.6 208 104.6Z" fill="#EFEBF5" stroke="#483F71"/>
<path d="M190 94.7C190 94.7 189.2 95.9 189.6 96.5C190 97.2 199.2 112.9 200 112.8C200.9 112.7 209.8 109.6 209.8 108.9C209.8 108.2 209.8 107.6 209.8 107.6" stroke="#2B274A" stroke-linecap="round" stroke-linejoin="round"/>
<path d="M190.3 94.1C190.3 94.1 189.4 95.1 189.9 95.8C190.3 96.5 199.5 112.2 200.3 112.1C201.1 112 209.7 109.1 209.7 108.4C209.7 107.9 209.6 107.4 209.4 107" stroke="#483F71" stroke-linecap="round" stroke-linejoin="round"/>
<path d="M191.2 99.3L192.6 101.6" stroke="white" stroke-width="0.5" stroke-linecap="round"/>
<path d="M62.8 124.1H69.8C69.8 124.1 70.9 124.2 71.8 122.3C72.2 121.5 72.1 120.4 71.5 119.7C70.9 119 70.1 118.6 69.2 118.6H62.8V124.1Z" fill="#00AD7D"/>
<path d="M46.2 196.5L44.9 199.7C44.9 199.7 45.5 200.1 50.7 200.2C50.8 199 50.8 197.8 50.7 196.5H46.2Z" fill="#00AD7D"/>
<path d="M44.9 199.4C44.9 199.5 36.4 204 36.4 204V205.7H51.1L50.7 199.9C50.7 200 45.3 200.4 44.9 199.4Z" fill="#D9DBDD"/>
<path d="M74.1 196.5L75.4 199.7C75.4 199.7 74.8 200.1 69.6 200.2C69.5 199 69.5 197.8 69.6 196.5H74.1Z" fill="#00AD7D"/>
<path d="M75.3 199.5C75.3 199.6 83.8 204.1 83.8 204.1V205.8H69.2L69.5 200C69.5 200 74.9 200.4 75.3 199.5Z" fill="#D9DBDD"/>
<path d="M46.8 123.9C46.8 123.9 43.6 134.9 43.8 138.6C43.9 138.5 38.4 195.7 38.4 195.7C38.4 195.7 44.6 197.7 59.3 196.6C59.3 196.5 58.4 139.2 58.4 139.2L62.5 196.6C62.5 196.6 75 197.7 82.9 194.9C82.6 194.9 69.5 125.7 66.9 123.9H46.8Z" fill="#41465A"/>
<path d="M60.1 94.4C56.3 93.7 53.5 90.5 53.5 86.6V80C53.5 75.7 57 72.2 61.2 72.2C64.1 72.2 66.7 73.8 68.1 76.4C68.3 76.8 68.5 77.2 68.6 77.6C69.8 81.3 71.7 92.6 70 94.3L60.1 94.4Z" fill="#00AD7D"/>
<path d="M54.6 98.9L57.4 85.6C55.7 83.8 54.8 81.4 54.9 78.9C55.4 71.5 65.5 73.1 67.5 76.9C69.5 80.6 69.2 90.1 66.7 90.7C65.7 91 63.5 90.3 61.3 89L62.7 98.9H54.6Z" fill="#F8BDBD"/>
<path d="M58.8 94.2H48.8C48.7 93.2 48.7 92.1 48.9 91.1C49 90.4 49.1 89.7 49.4 89C49.8 88 50.4 87.1 51.2 86.4C52.4 85 53.7 83.6 53.7 79.2L54 79C54.2 78.8 54.5 78.5 54.7 78.3V78C55.2 77 55.8 76.2 56.5 75.3C57.1 74.6 57.8 74 58.6 73.5C59.4 73 60.3 72.7 61.3 72.7C62.8 72.6 64.3 73 65.5 73.8C66.3 74.4 67 75.2 67.6 76.1C67.3 77 66.8 77.8 66 78.3C65.2 78.9 64.3 79.3 63.4 79.7C62.5 80.1 61.7 80.5 60.9 81C60.1 80.3 58.9 80.5 58.2 81.3C57.5 82.1 57.7 83.3 58.5 84C58.8 84.3 59.3 84.4 59.7 84.4H59.8C60 86.4 60 88.4 59.9 90.5C59.7 91.8 59.4 93.6 58.8 94.2Z" fill="#00AD7D"/>
<path d="M73.7 120.7C75.3 120.2 76.7 117.3 75.7 113C74.7 108.7 71.4 102.5 68.5 100.4C68.4 100.4 62.5 97.7 62.5 97.7C62.5 97.7 58.8 99.6 54.8 97.7C54.7 97.7 52.4 98.9 50.2 100.1C48.1 101.2 46.5 103.4 46.1 105.9C45.4 110.4 44.6 117.8 45.9 123.6C46 124.1 46.4 124.4 46.8 124.5C48.7 125 54.3 126 62.9 124.3C62.8 124.4 62.9 118.7 62.9 118.7H70.6" fill="#00AD7D"/>
<path d="M68.1 99.8L65.3 98.1C65.3 98.1 64.8 96.5 65.3 96.3C66 95.7 66.6 95 67.1 94.2L66.8 92.5C66.8 92.5 66.1 90.8 67.1 90.9C68.1 91 70.3 94.2 70.3 94.2V95.8C70.3 95.8 74.8 104.9 75 107.5C75.2 110.1 75.9 117.1 74.8 118.7C74.8 118.8 73.9 119.8 73.3 119.4C72.7 119.1 69.9 114.9 69.6 113.1C69.3 111.3 68.8 100.2 68.8 100.2L68.1 99.8Z" fill="#EFB099"/>
<path opacity="0.41" d="M50.1 108.5C50.1 108.5 49.2 115.1 50.1 116.7C51 118.3 52.1 118.4 52.2 118.3C54.8 118.8 60.7 118.6 60.7 118.6" stroke="white" stroke-width="0.5" stroke-linecap="round" stroke-linejoin="round"/>
<path opacity="0.41" d="M66.9 106.3C67.8 109.1 68.4 112 68.7 114.9C68.8 115.9 68.8 116.9 68.8 117.9" stroke="white" stroke-width="0.5" stroke-linecap="round" stroke-linejoin="round"/>
<path opacity="0.2" d="M48.1 132.4C48.1 132.4 40.7 180.8 42.4 196.1" stroke="white" stroke-width="0.75" stroke-linecap="round"/>
<path opacity="0.2" d="M53.1 129C53.1 129 51.5 194.2 51.4 196.6" stroke="white" stroke-linecap="round"/>
<path opacity="0.2" d="M67.3 129C67.3 129 80 187.3 79.1 196.2" stroke="white" stroke-width="0.75" stroke-linecap="round"/>
<path opacity="0.2" d="M64.1 136.2C64.1 136.2 68.2 192.4 69 196" stroke="white" stroke-width="0.75" stroke-linecap="round"/>
<path d="M59.6 60.2C66.8 53.7 67.2 42.5 60.6 35.4C54.4 28.9 43.9 28.3 37.1 34.1C29.7 40.4 29 51.6 35.4 58.8C40.4 64.4 48.4 66.1 55.3 63C56.5 64.5 58.1 65.6 59.8 66.4L60.5 66.7L60.4 66.2C59.7 64.4 59.5 62.3 59.6 60.2Z" fill="#00AD7D"/>
<path d="M46.2 38.3C43.1 37.8 40.1 39.8 39.6 43C39.1 46.1 41.1 49.1 44.3 49.7C45.3 49.9 46.2 49.8 47.1 49.5L52.7 57.5C52.8 57.7 53.1 57.8 53.3 57.7C53.4 57.7 53.4 57.7 53.4 57.6L55.2 56.3L55.3 56.2C55.4 56 55.4 55.7 55.3 55.6L54.5 54.5L56.1 53.4L56.2 53.3C56.3 53.1 56.3 52.9 56.2 52.7L55 50.9L54.9 50.8C54.7 50.7 54.4 50.7 54.3 50.8L52.7 51.9L49.7 47.7C51.7 45.2 51.3 41.6 48.8 39.6C48.1 39 47.2 38.5 46.2 38.3ZM47.6 42.4C48.5 43.7 48.2 45.5 46.9 46.4C45.6 47.3 43.8 47 42.9 45.7C42 44.4 42.3 42.6 43.6 41.7C44.2 41.3 45 41.1 45.7 41.2C46.5 41.4 47.1 41.8 47.6 42.4Z" fill="white"/>
<path d="M89.4 116H207.3C208.7 116 209.8 117.1 209.8 118.5V139.5C209.8 140.9 208.7 142 207.3 142H89.4C88 142 86.9 140.9 86.9 139.5V118.5C86.9 117.1 88 116 89.4 116Z" fill="white"/>
<path d="M89.4 116.8H207.3C208.4 116.8 209.4 117.7 209.4 118.9V139.9C209.4 141.1 208.5 142 207.3 142H89.4C88.3 142 87.3 141.1 87.3 139.9V118.9C87.3 117.7 88.3 116.8 89.4 116.8Z" stroke="#45215B"/>
<path d="M102.8 126.9H104.1V127.6C104.6 127 105.1 126.8 105.7 126.8C106 126.8 106.3 126.9 106.6 127C106.9 127.1 107 127.3 107.2 127.6C107.4 127.3 107.7 127.1 107.9 127C108.2 126.9 108.4 126.8 108.7 126.8C109.1 126.8 109.4 126.9 109.7 127C110 127.2 110.2 127.4 110.3 127.7C110.4 127.9 110.4 128.3 110.4 128.8V132.1H109V129.1C109 128.6 109 128.3 108.9 128.1C108.8 127.9 108.6 127.8 108.3 127.8C108.1 127.8 107.9 127.9 107.8 128C107.6 128.1 107.5 128.3 107.4 128.5C107.3 128.7 107.3 129.1 107.3 129.6V132.1H105.9V129.3C105.9 128.8 105.9 128.5 105.8 128.3C105.8 128.2 105.7 128 105.6 128C105.5 127.9 105.4 127.9 105.2 127.9C105 127.9 104.8 128 104.6 128.1C104.4 128.2 104.3 128.4 104.2 128.6C104.1 128.8 104.1 129.2 104.1 129.7V132.2H102.7V126.9H102.8ZM111.8 126.2V124.9H113.2V126.2H111.8ZM111.8 132.1V126.9H113.2V132.1H111.8ZM119.1 128.4L117.7 128.6C117.7 128.3 117.5 128.1 117.4 128C117.2 127.9 117 127.8 116.8 127.8C116.5 127.8 116.2 127.9 116 128.2C115.8 128.4 115.7 128.8 115.7 129.4C115.7 130 115.8 130.5 116 130.7C116.2 131 116.5 131.1 116.8 131.1C117.1 131.1 117.3 131 117.4 130.9C117.6 130.7 117.7 130.5 117.8 130.1L119.1 130.3C119 130.9 118.7 131.4 118.3 131.7C117.9 132 117.4 132.2 116.7 132.2C115.9 132.2 115.3 132 114.9 131.5C114.5 131 114.2 130.4 114.2 129.5C114.2 128.6 114.4 128 114.9 127.5C115.4 127 116 126.8 116.7 126.8C117.3 126.8 117.8 126.9 118.2 127.2C118.6 127.4 118.9 127.8 119.1 128.4ZM121.5 124.9V127.5C121.9 127 122.5 126.7 123.1 126.7C123.4 126.7 123.7 126.8 124 126.9C124.3 127 124.4 127.2 124.6 127.3C124.7 127.5 124.8 127.7 124.9 127.9C124.9 128.1 125 128.5 125 128.9V131.9H123.6V129.2C123.6 128.7 123.6 128.3 123.5 128.2C123.4 128.1 123.4 127.9 123.2 127.9C123.1 127.8 122.9 127.8 122.7 127.8C122.5 127.8 122.3 127.9 122.1 128C121.9 128.1 121.8 128.3 121.7 128.5C121.6 128.7 121.6 129.1 121.6 129.5V132.1H120.2V124.9H121.5ZM129.2 130.4L130.6 130.6C130.4 131.1 130.1 131.5 129.8 131.7C129.4 132 128.9 132.1 128.4 132.1C127.5 132.1 126.8 131.8 126.4 131.2C126.1 130.7 125.9 130.1 125.9 129.4C125.9 128.5 126.1 127.9 126.6 127.4C127 126.9 127.6 126.7 128.3 126.7C129.1 126.7 129.7 127 130.1 127.5C130.5 128 130.8 128.8 130.7 129.8H127.3C127.3 130.2 127.4 130.5 127.6 130.8C127.8 131 128.1 131.1 128.4 131.1C128.6 131.1 128.8 131 128.9 130.9C129.1 130.9 129.2 130.7 129.2 130.4ZM129.3 129C129.3 128.6 129.2 128.3 129 128.1C128.8 127.9 128.6 127.8 128.3 127.8C128 127.8 127.8 127.9 127.6 128.1C127.4 128.3 127.3 128.6 127.3 129H129.3ZM132.8 128.5L131.6 128.3C131.7 127.8 132 127.4 132.3 127.2C132.6 127 133.1 126.8 133.8 126.8C134.4 126.8 134.9 126.9 135.2 127C135.5 127.1 135.7 127.3 135.8 127.6C135.9 127.8 136 128.2 136 128.8V130.4C136 130.9 136 131.2 136.1 131.4C136.1 131.6 136.2 131.8 136.3 132.1H135C135 132 134.9 131.9 134.9 131.7C134.9 131.6 134.9 131.6 134.9 131.5C134.7 131.7 134.4 131.9 134.1 132C133.8 132.1 133.5 132.2 133.2 132.2C132.7 132.2 132.2 132.1 131.9 131.8C131.6 131.5 131.4 131.1 131.4 130.7C131.4 130.4 131.5 130.1 131.6 129.9C131.7 129.7 131.9 129.5 132.2 129.4C132.5 129.3 132.8 129.2 133.3 129.1C133.9 129 134.4 128.9 134.6 128.8V128.7C134.6 128.4 134.5 128.2 134.4 128.1C134.3 128 134 127.9 133.7 127.9C133.5 127.9 133.3 127.9 133.1 128C133 128 132.9 128.2 132.8 128.5ZM134.7 129.6C134.5 129.7 134.2 129.7 133.9 129.8C133.5 129.9 133.3 130 133.2 130C133 130.1 132.9 130.3 132.9 130.5C132.9 130.7 133 130.9 133.1 131C133.2 131.1 133.4 131.2 133.6 131.2C133.8 131.2 134.1 131.1 134.3 131C134.5 130.9 134.6 130.7 134.6 130.5C134.6 130.4 134.7 130.2 134.7 129.8V129.6ZM137.4 132.1V124.9H138.8V132.1H137.4ZM141.5 132.1H140.1V126.9H141.4V127.6C141.6 127.3 141.8 127 142 126.9C142.2 126.8 142.4 126.7 142.6 126.7C142.9 126.7 143.2 126.8 143.5 127L143.1 128.2C142.9 128.1 142.7 128 142.5 128C142.3 128 142.1 128.1 142 128.2C141.9 128.3 141.8 128.5 141.7 128.8C141.6 129.1 141.6 129.7 141.6 130.5V132.1H141.5ZM144 126.2V124.9H145.4V126.2H144ZM144 132.1V126.9H145.4V132.1H144ZM146.5 129.4C146.5 128.9 146.6 128.5 146.8 128.1C147 127.7 147.3 127.3 147.8 127.1C148.2 126.9 148.7 126.8 149.2 126.8C150 126.8 150.6 127.1 151.1 127.6C151.6 128.1 151.9 128.8 151.9 129.5C151.9 130.3 151.6 130.9 151.1 131.5C150.6 132 150 132.3 149.2 132.3C148.7 132.3 148.3 132.2 147.8 132C147.4 131.8 147 131.5 146.8 131.1C146.6 130.5 146.5 130 146.5 129.4ZM147.9 129.5C147.9 130 148 130.4 148.3 130.7C148.5 131 148.8 131.1 149.2 131.1C149.6 131.1 149.9 131 150.1 130.7C150.3 130.4 150.5 130 150.5 129.5C150.5 129 150.4 128.6 150.1 128.3C149.9 128 149.6 127.9 149.2 127.9C148.8 127.9 148.5 128 148.3 128.3C148 128.6 147.9 129 147.9 129.5ZM160.9 132H161.9C161.6 132.7 161.1 133.2 160.4 133.6C159.6 134 158.7 134.2 157.6 134.2C156.5 134.2 155.6 134 154.8 133.7C154 133.3 153.4 132.8 153.1 132.1C152.7 131.4 152.5 130.6 152.5 129.8C152.5 128.9 152.7 128 153.2 127.2C153.6 126.4 154.2 125.8 155 125.4C155.8 125 156.6 124.8 157.6 124.8C158.4 124.8 159.1 125 159.8 125.3C160.4 125.6 160.9 126.1 161.3 126.7C161.6 127.3 161.8 127.9 161.8 128.6C161.8 129.4 161.5 130.2 161 130.9C160.4 131.7 159.5 132.2 158.5 132.2C158.2 132.2 158 132.2 157.9 132.1C157.8 132 157.7 131.9 157.6 131.7C157.2 132.1 156.8 132.3 156.3 132.3C155.8 132.3 155.3 132.1 155 131.7C154.6 131.3 154.5 130.8 154.5 130.2C154.5 129.4 154.7 128.7 155.1 128.1C155.6 127.3 156.3 126.9 157.1 126.9C157.7 126.9 158.1 127.1 158.4 127.6L158.5 127.1H159.8L159.1 130.6C159.1 130.8 159 131 159 131C159 131.1 159 131.1 159.1 131.2L159.2 131.3C159.4 131.3 159.6 131.2 159.8 131C160.1 130.8 160.4 130.4 160.6 130C160.8 129.6 160.9 129.2 160.9 128.7C160.9 127.9 160.6 127.2 160 126.7C159.4 126.2 158.6 125.9 157.6 125.9C156.7 125.9 156 126.1 155.4 126.4C154.8 126.8 154.3 127.3 154 127.9C153.7 128.6 153.5 129.2 153.5 129.9C153.5 130.6 153.7 131.2 154 131.8C154.3 132.4 154.8 132.8 155.5 133C156.1 133.3 156.8 133.4 157.7 133.4C158.5 133.4 159.1 133.3 159.7 133.1C160.1 132.7 160.6 132.4 160.9 132ZM155.6 130C155.6 130.4 155.7 130.7 155.8 130.9C156 131.1 156.2 131.2 156.4 131.2C156.6 131.2 156.8 131.2 156.9 131.1C157 131 157.1 130.9 157.3 130.8C157.5 130.6 157.6 130.3 157.7 129.9C157.8 129.5 157.9 129.2 157.9 128.8C157.9 128.4 157.8 128.2 157.6 128C157.4 127.8 157.2 127.7 157 127.7C156.7 127.7 156.5 127.8 156.2 128C156 128.2 155.8 128.5 155.7 128.9C155.7 129.3 155.6 129.6 155.6 130ZM162.1 132.1V131L164 128.8C164.3 128.4 164.6 128.2 164.7 128C164.5 128 164.3 128 164.1 128H162.3V126.9H166.6V127.9L164.6 130.2L163.9 131C164.3 131 164.5 131 164.6 131H166.7V132.2H162.1V132.1ZM167.1 126.9H168.6L169.8 130.6L171 126.9H172.4L170.6 131.9L170.3 132.8C170.2 133.1 170.1 133.3 170 133.5C169.9 133.7 169.8 133.8 169.6 133.9C169.5 134 169.3 134.1 169.1 134.1C168.9 134.2 168.7 134.2 168.4 134.2C168.1 134.2 167.9 134.2 167.6 134.1L167.5 133C167.7 133 167.9 133.1 168.1 133.1C168.4 133.1 168.7 133 168.8 132.8C169 132.6 169.1 132.4 169.2 132.1L167.1 126.9ZM173.3 132.1V124.9H174.7V132.1H173.3ZM176 132.1V124.9H177.4V128.7L179 126.9H180.7L178.9 128.8L180.8 132.1H179.3L178 129.8L177.4 130.5V132.2H176V132.1ZM184.6 130.4L186 130.6C185.8 131.1 185.5 131.5 185.2 131.7C184.8 132 184.3 132.1 183.8 132.1C182.9 132.1 182.2 131.8 181.8 131.2C181.5 130.7 181.3 130.1 181.3 129.4C181.3 128.5 181.5 127.9 182 127.4C182.4 126.9 183 126.7 183.7 126.7C184.5 126.7 185.1 127 185.5 127.5C185.9 128 186.2 128.8 186.1 129.8H182.7C182.7 130.2 182.8 130.5 183 130.8C183.2 131 183.5 131.1 183.8 131.1C184 131.1 184.2 131 184.3 130.9C184.4 130.9 184.5 130.7 184.6 130.4ZM184.7 129C184.7 128.6 184.6 128.3 184.4 128.1C184.2 127.9 184 127.8 183.7 127.8C183.4 127.8 183.2 127.9 183 128.1C182.8 128.3 182.7 128.6 182.7 129H184.7ZM188.5 132.1H187.1V126.9H188.4V127.6C188.6 127.3 188.8 127 189 126.9C189.2 126.8 189.4 126.7 189.6 126.7C189.9 126.7 190.2 126.8 190.5 127L190.1 128.2C189.9 128.1 189.7 128 189.5 128C189.3 128 189.1 128.1 189 128.2C188.9 128.3 188.8 128.5 188.7 128.8C188.6 129.1 188.6 129.7 188.6 130.5V132.1H188.5ZM190.5 132.1V130.7H191.9V132.1H190.5ZM193.2 132.1V124.9H194.6V127.5C195 127 195.5 126.8 196.1 126.8C196.7 126.8 197.3 127 197.7 127.5C198.1 128 198.3 128.6 198.3 129.5C198.3 130.4 198.1 131.1 197.7 131.5C197.3 132 196.8 132.2 196.2 132.2C195.9 132.2 195.6 132.1 195.3 132C195 131.9 194.8 131.6 194.6 131.3V132.1H193.2ZM194.6 129.4C194.6 129.9 194.7 130.3 194.9 130.6C195.1 131 195.5 131.1 195.8 131.1C196.1 131.1 196.4 131 196.6 130.7C196.8 130.4 196.9 130 196.9 129.5C196.9 128.9 196.8 128.5 196.6 128.2C196.4 127.9 196.1 127.8 195.8 127.8C195.5 127.8 195.2 127.9 195 128.2C194.7 128.4 194.6 128.8 194.6 129.4ZM199.4 126.2V124.9H200.8V126.2H199.4ZM199.4 132.1V126.9H200.8V132.1H199.4ZM201.7 132.1V131L203.6 128.8C203.9 128.4 204.2 128.2 204.3 128C204.1 128 203.9 128 203.7 128H201.9V126.9H206.2V127.9L204.2 130.2L203.5 131C203.9 131 204.1 131 204.2 131H206.3V132.2H201.7V132.1Z" fill="#21252B"/>
<path d="M93.8 128H93.1V126.3C93.1 124.7 94.4 123.4 96 123.4C97.6 123.4 98.9 124.7 98.9 126.3V128H98.2V126.3C98.2 125.1 97.2 124.1 96 124.1C94.8 124.1 93.8 125.1 93.8 126.3V128Z" fill="#5A5D7F"/>
<path d="M92.3 127.7H99C99.9 127.7 100.7 128.5 100.7 129.4V133.7C100.7 134.6 99.9 135.4 99 135.4H92.3C91.4 135.4 90.6 134.6 90.6 133.7V129.4C90.6 128.4 91.4 127.7 92.3 127.7Z" fill="#00AD7D"/>
<path d="M99 125.3H96.6V127.7H99V125.3Z" fill="white"/>
<path d="M206.6 61.8C218.4 66.4 231.8 59.7 235.1 47.1C237.6 37.5 233.1 27.1 224.3 22.5C212.7 16.5 198.9 22 194.3 33.9C191 42.6 193.6 52.5 200.8 58.4C199 62.1 193.2 67.6 193.2 67.6C197.9 66.3 202.5 64.4 206.6 61.8Z" fill="#00AD7D"/>
<path d="M209.4 30.3C209.4 30.3 204.8 30.2 204.3 30.3C203.2 30.3 202.2 31.2 202.2 32.3V37.8" stroke="white" stroke-width="2" stroke-linecap="round" stroke-linejoin="round"/>
<path d="M218.7 30.3C218.7 30.3 223.3 30.2 223.8 30.3C224.9 30.3 225.9 31.2 225.9 32.3V37.8" stroke="white" stroke-width="2" stroke-linecap="round" stroke-linejoin="round"/>
<path d="M218.7 53.3C218.7 53.3 223.3 53.4 223.8 53.3C224.9 53.3 225.9 52.4 225.9 51.3V45.8" stroke="white" stroke-width="2" stroke-linecap="round" stroke-linejoin="round"/>
<path d="M209.4 53.3C209.4 53.3 204.8 53.4 204.3 53.3C203.2 53.3 202.2 52.4 202.2 51.3V45.8" stroke="white" stroke-width="2" stroke-linecap="round" stroke-linejoin="round"/>
<path d="M209.2 46.8C209.2 46.8 214 53.3 220 46.8" stroke="white" stroke-width="2" stroke-linecap="round"/>
<path d="M208.2 36C208.9 36 209.5 36.6 209.5 37.3V38.7C209.5 39.4 208.9 40 208.2 40C207.5 40 206.9 39.4 206.9 38.7V37.3C206.9 36.6 207.5 36 208.2 36Z" fill="white"/>
<path d="M208.2 36.4C208.7 36.4 209.1 36.8 209.1 37.3V38.7C209.1 39.2 208.7 39.6 208.2 39.6C207.7 39.6 207.3 39.2 207.3 38.7V37.3C207.3 36.8 207.7 36.4 208.2 36.4Z" stroke="white"/>
<path d="M220.8 39.6C220.3 39.6 219.9 39.2 219.9 38.7V37.3C219.9 36.8 220.3 36.4 220.8 36.4C221.3 36.4 221.7 36.8 221.7 37.3V38.7C221.7 39.2 221.3 39.6 220.8 39.6Z" fill="white"/>
<path d="M220.8 36.8C220.5 36.8 220.3 37 220.3 37.3V38.7C220.3 39 220.5 39.2 220.8 39.2C221.1 39.2 221.3 39 221.3 38.7V37.3C221.3 37 221.1 36.8 220.8 36.8ZM220.8 36C221.5 36 222.1 36.6 222.1 37.3V38.7C222.1 39.4 221.5 40 220.8 40C220.1 40 219.5 39.4 219.5 38.7V37.3C219.5 36.6 220.1 36 220.8 36Z" fill="white"/>
<path d="M213 37.1V41.8C213 42.7 213.4 43.6 214.2 44C214.9 44.3 215.6 44.4 216.3 44.2" stroke="white" stroke-width="2" stroke-linecap="round" stroke-linejoin="round"/>
<path d="M177.2 154.1C166.2 150.7 154.6 156.9 151.2 168C147.8 179.1 154 190.8 165 194.2C176 197.6 187.6 191.4 191 180.3C193.4 172.3 190.9 163.6 184.5 158.2C184.5 154.1 191.3 148.1 191.3 148.1L177.2 154.1Z" fill="#00AD7D"/>
<path d="M182.6 170.6C182.3 170.6 182 170.5 181.9 170.3C179.4 166.9 175.4 165 171.2 165.2C167 165.4 163.2 167.8 161.1 171.4C160.9 171.8 160.3 171.9 159.9 171.7C159.5 171.5 159.4 170.9 159.6 170.5C162 166.4 166.3 163.7 171.1 163.4C175.9 163.2 180.4 165.4 183.3 169.2C183.6 169.6 183.5 170.1 183.1 170.4C182.9 170.5 182.8 170.6 182.6 170.6Z" fill="white"/>
<path d="M173.6 161.6C169.5 160.9 165.2 162.3 162.3 165.4C162 165.7 161.4 165.8 161.1 165.4C160.8 165.1 160.7 164.5 161.1 164.2C164.4 160.7 169.2 159.1 173.9 159.9" fill="white"/>
<path d="M168 160.2C172.6 159 177.5 160.2 181.1 163.4C181.5 163.7 181.5 164.3 181.2 164.6C180.9 165 180.3 165 180 164.7C176.9 161.9 172.5 160.8 168.5 161.9" fill="white"/>
<path d="M169.6 187.7C169.4 187.7 169.2 187.6 169 187.5C168.8 187.3 164.2 183 164 178.7C163.7 174.3 167.1 170.4 171.5 170.1C175.9 169.9 179.6 173.4 179.8 177.9C179.8 178.4 179.5 178.8 179 178.8C178.5 178.8 178.1 178.5 178.1 178C178 174.5 175.1 171.8 171.6 171.9C168.1 172.1 165.5 175.2 165.8 178.7C166 182.3 170.2 186.3 170.3 186.3C170.7 186.6 170.7 187.2 170.4 187.5C170 187.6 169.8 187.7 169.6 187.7Z" fill="white"/>
<path d="M175 187.4C172.9 187.5 168 183.8 167.3 179.5C167.1 178 167.4 176.4 168.4 175.2C169.2 174.2 170.3 173.6 171.6 173.5C172.8 173.4 174 173.9 174.9 174.7C175.9 175.6 176.4 176.8 176.5 178.1V178.7C176.5 180 177.6 181.1 178.9 181.1C180.2 181.1 181.3 180 181.3 178.7C181.3 178.6 181.3 178.6 181.3 178.5V178.3C181 172.9 176.9 168.7 172 168.6C169.4 168.6 167 169.6 165.2 171.5C161.6 175.3 161.5 181.2 165 185.1C165.3 185.5 165.3 186 164.9 186.3C164.5 186.6 164 186.6 163.7 186.2C159.7 181.6 159.8 174.7 164 170.3C166.1 168.1 169 166.8 172.1 166.9C177.9 167 182.8 172 183.1 178.2V178.4C183.3 180.7 181.6 182.7 179.3 182.9C177 183.1 175.1 181.4 174.9 179.1C174.9 179 174.9 178.9 174.9 178.9V178.3C174.9 177.5 174.5 176.7 173.9 176.1C173.3 175.6 172.6 175.3 171.8 175.4C171 175.5 170.3 175.8 169.9 176.4C169.3 177.2 169 178.3 169.2 179.4C169.8 183 174 186 175.1 185.9C175.6 185.9 176 186.3 176 186.7C175.8 187 175.5 187.4 175 187.4Z" fill="white"/>
<path d="M178.1 185.6C175 185.8 171.1 182.2 170.9 177.8C170.9 177.3 171.2 176.9 171.7 176.9C172.2 176.9 172.6 177.2 172.6 177.7C172.8 181.1 175.8 184 178 183.9C178.5 183.9 178.9 184.2 178.9 184.7C178.9 185.1 178.6 185.6 178.1 185.6Z" fill="white"/>
<path opacity="0.32" d="M73.9 37.6C76.4 37.6 78.5 35.5 78.5 33C78.5 30.5 76.4 28.4 73.9 28.4C71.4 28.4 69.3 30.5 69.3 33C69.3 35.5 71.4 37.6 73.9 37.6Z" fill="#D9DBDD"/>
<path opacity="0.32" d="M83.5 30.9C85.3 30.9 86.8 29.4 86.8 27.5C86.8 25.6 85.3 24.1 83.5 24.1C81.7 24.1 80.2 25.6 80.2 27.5C80.2 29.4 81.7 30.9 83.5 30.9Z" fill="#D9DBDD"/>
<path d="M237 141C237 141 239 139.5 240.9 139.2" stroke="#DC9888" stroke-width="0.25" stroke-miterlimit="10" stroke-linecap="round"/>
<path d="M238 142C238 142 240 140.5 241.9 140.2" stroke="#DC9888" stroke-width="0.25" stroke-miterlimit="10" stroke-linecap="round"/>
<path d="M234.6 91.9C234.6 91.9 231.2 93.3 229.6 94.3C229.6 94.3 231.2 94.6 230.7 97.3L234.6 91.9Z" fill="#4E5EAE"/>
<path opacity="0.35" d="M229.6 94.3C229.6 94.3 230.8 95.4 230.7 97.3C230.7 97.3 231.7 94.6 229.6 94.3Z" fill="#4E5EAE"/>
<path d="M194.1 68.7C194.1 68.7 181.4 82.3 194.6 98.1" stroke="#D0D0D0" stroke-miterlimit="10" stroke-linecap="round" stroke-dasharray="3 3"/>
<path d="M200.1 105.5C200.1 105.5 227.1 125.8 217.3 150.5C216.7 151.9 216 153.3 215.3 154.6C212.8 158.9 207.3 167.5 201.6 167.9C198.9 168.1 196.4 165.9 196.7 163.1C196.8 162.2 197.3 161.2 198.4 160.3C201.7 157.8 205.5 163.1 205.5 163.1C205.5 163.1 207.6 166.6 208.6 170.8C210 176.8 206.7 183.1 200.8 184.8C198.3 185.5 195.3 185.5 192 183.5" stroke="#D0D0D0" stroke-miterlimit="10" stroke-linecap="round" stroke-dasharray="3 3"/>
</g>
</g>
<defs>
<clipPath id="clip0_0_1">
<rect width="300" height="240" fill="white"/>
</clipPath>
</defs>
</svg>
